<svg width="20" height="20" viewBox="0 0 20 20" fill="none" xmlns="http://www.w3.org/2000/svg">
<g id="Group">
<path id="Vector" d="M14.1666 17.5H5.83323C4.65259 17.5008 3.50977 17.0837 2.60714 16.3227C1.7045 15.5617 1.10029 14.5058 0.901483 13.342C0.702679 12.1782 0.92211 10.9816 1.52092 9.96409C2.11973 8.94658 3.05929 8.17378 4.17323 7.78255C4.13549 6.99393 4.25824 6.20586 4.53403 5.46608C4.80982 4.72629 5.23291 4.05019 5.77768 3.47873C6.32245 2.90727 6.97756 2.45235 7.70332 2.14151C8.42907 1.83068 9.21038 1.67041 9.9999 1.67041C10.7894 1.67041 11.5707 1.83068 12.2965 2.14151C13.0222 2.45235 13.6773 2.90727 14.2221 3.47873C14.7669 4.05019 15.19 4.72629 15.4658 5.46608C15.7416 6.20586 15.8643 6.99393 15.8266 7.78255C16.9405 8.17378 17.8801 8.94658 18.4789 9.96409C19.0777 10.9816 19.2971 12.1782 19.0983 13.342C18.8995 14.5058 18.2953 15.5617 17.3927 16.3227C16.49 17.0837 15.3472 17.5008 14.1666 17.5ZM14.1666 7.50005C14.1668 6.94422 14.0558 6.39397 13.8401 5.88169C13.6244 5.36941 13.3084 4.90546 12.9107 4.51717C12.513 4.12887 12.0416 3.82406 11.5243 3.62071C11.007 3.41735 10.4543 3.31955 9.89861 3.33306C9.34295 3.34657 8.7956 3.47112 8.28881 3.69938C7.78201 3.92764 7.326 4.25499 6.94763 4.66216C6.56927 5.06932 6.2762 5.54808 6.08567 6.07023C5.89514 6.59239 5.81101 7.14739 5.83823 7.70255L5.89656 8.94255L4.72656 9.35422C3.98532 9.61636 3.36052 10.132 2.96248 10.81C2.56443 11.488 2.41874 12.2849 2.55111 13.0599C2.68349 13.8349 3.08542 14.5382 3.68595 15.0457C4.28648 15.5532 5.047 15.8321 5.83323 15.8334H14.1666C14.7802 15.8332 15.3818 15.6636 15.9052 15.3433C16.4287 15.0231 16.8535 14.5646 17.133 14.0183C17.4125 13.472 17.5357 12.8592 17.4892 12.2473C17.4427 11.6355 17.2282 11.0483 16.8693 10.5506C16.5105 10.0529 16.0212 9.66385 15.4554 9.4264C14.8895 9.18895 14.2692 9.1123 13.6626 9.20487C13.056 9.29745 12.4867 9.55567 12.0175 9.95108C11.5483 10.3465 11.1973 10.8638 11.0032 11.4459L9.42156 10.9184C9.75392 9.92287 10.391 9.05711 11.2425 8.44363C12.0941 7.83016 13.117 7.50006 14.1666 7.50005Z" fill="white"/>
</g>
</svg>
