<svg width="20" height="20" viewBox="0 0 20 20" fill="none" xmlns="http://www.w3.org/2000/svg">
<g id="Group">
<path id="Vector" d="M5.41602 9.58337C4.92356 9.58337 4.43592 9.48638 3.98095 9.29792C3.52598 9.10947 3.11258 8.83324 2.76437 8.48502C2.41615 8.1368 2.13992 7.72341 1.95147 7.26844C1.76301 6.81347 1.66602 6.32583 1.66602 5.83337C1.66602 5.34092 1.76301 4.85328 1.95147 4.39831C2.13992 3.94334 2.41615 3.52994 2.76437 3.18172C3.11258 2.8335 3.52598 2.55728 3.98095 2.36883C4.43592 2.18037 4.92356 2.08337 5.41602 2.08337C6.41058 2.08337 7.3644 2.47846 8.06767 3.18172C8.77093 3.88498 9.16602 4.83881 9.16602 5.83337C9.16602 6.82794 8.77093 7.78176 8.06767 8.48502C7.3644 9.18829 6.41058 9.58337 5.41602 9.58337ZM5.83268 17.9167C4.83812 17.9167 3.88429 17.5216 3.18103 16.8184C2.47777 16.1151 2.08268 15.1613 2.08268 14.1667C2.08268 13.1721 2.47777 12.2183 3.18103 11.5151C3.88429 10.8118 4.83812 10.4167 5.83268 10.4167C6.82724 10.4167 7.78107 10.8118 8.48433 11.5151C9.18759 12.2183 9.58268 13.1721 9.58268 14.1667C9.58268 15.1613 9.18759 16.1151 8.48433 16.8184C7.78107 17.5216 6.82724 17.9167 5.83268 17.9167ZM14.166 9.58337C13.6736 9.58337 13.1859 9.48638 12.731 9.29792C12.276 9.10947 11.8626 8.83324 11.5144 8.48502C11.1661 8.1368 10.8899 7.72341 10.7015 7.26844C10.513 6.81347 10.416 6.32583 10.416 5.83337C10.416 5.34092 10.513 4.85328 10.7015 4.39831C10.8899 3.94334 11.1661 3.52994 11.5144 3.18172C11.8626 2.8335 12.276 2.55728 12.731 2.36883C13.1859 2.18037 13.6736 2.08337 14.166 2.08337C15.1606 2.08337 16.1144 2.47846 16.8177 3.18172C17.5209 3.88498 17.916 4.83881 17.916 5.83337C17.916 6.82794 17.5209 7.78176 16.8177 8.48502C16.1144 9.18829 15.1606 9.58337 14.166 9.58337ZM14.166 17.9167C13.1715 17.9167 12.2176 17.5216 11.5144 16.8184C10.8111 16.1151 10.416 15.1613 10.416 14.1667C10.416 13.1721 10.8111 12.2183 11.5144 11.5151C12.2176 10.8118 13.1715 10.4167 14.166 10.4167C15.1606 10.4167 16.1144 10.8118 16.8177 11.5151C17.5209 12.2183 17.916 13.1721 17.916 14.1667C17.916 15.1613 17.5209 16.1151 16.8177 16.8184C16.1144 17.5216 15.1606 17.9167 14.166 17.9167ZM5.41602 7.91671C5.96855 7.91671 6.49845 7.69721 6.88915 7.30651C7.27986 6.91581 7.49935 6.38591 7.49935 5.83337C7.49935 5.28084 7.27986 4.75094 6.88915 4.36023C6.49845 3.96953 5.96855 3.75004 5.41602 3.75004C4.86348 3.75004 4.33358 3.96953 3.94288 4.36023C3.55218 4.75094 3.33268 5.28084 3.33268 5.83337C3.33268 6.38591 3.55218 6.91581 3.94288 7.30651C4.33358 7.69721 4.86348 7.91671 5.41602 7.91671ZM5.83268 16.25C6.38522 16.25 6.91512 16.0305 7.30582 15.6398C7.69652 15.2491 7.91602 14.7192 7.91602 14.1667C7.91602 13.6142 7.69652 13.0843 7.30582 12.6936C6.91512 12.3029 6.38522 12.0834 5.83268 12.0834C5.28015 12.0834 4.75024 12.3029 4.35954 12.6936C3.96884 13.0843 3.74935 13.6142 3.74935 14.1667C3.74935 14.7192 3.96884 15.2491 4.35954 15.6398C4.75024 16.0305 5.28015 16.25 5.83268 16.25ZM14.166 7.91671C14.7185 7.91671 15.2485 7.69721 15.6392 7.30651C16.0299 6.91581 16.2493 6.38591 16.2493 5.83337C16.2493 5.28084 16.0299 4.75094 15.6392 4.36023C15.2485 3.96953 14.7185 3.75004 14.166 3.75004C13.6135 3.75004 13.0836 3.96953 12.6929 4.36023C12.3022 4.75094 12.0827 5.28084 12.0827 5.83337C12.0827 6.38591 12.3022 6.91581 12.6929 7.30651C13.0836 7.69721 13.6135 7.91671 14.166 7.91671ZM14.166 16.25C14.7185 16.25 15.2485 16.0305 15.6392 15.6398C16.0299 15.2491 16.2493 14.7192 16.2493 14.1667C16.2493 13.6142 16.0299 13.0843 15.6392 12.6936C15.2485 12.3029 14.7185 12.0834 14.166 12.0834C13.6135 12.0834 13.0836 12.3029 12.6929 12.6936C12.3022 13.0843 12.0827 13.6142 12.0827 14.1667C12.0827 14.7192 12.3022 15.2491 12.6929 15.6398C13.0836 16.0305 13.6135 16.25 14.166 16.25Z" fill="white"/>
</g>
</svg>
