<svg width="25" height="24" viewBox="0 0 25 24" fill="none" xmlns="http://www.w3.org/2000/svg">
<g id="Group">
<path id="Vector" d="M13.5 19H19.5V9.97803L12.5 4.53403L5.5 9.97803V19H11.5V13H13.5V19ZM21.5 20C21.5 20.2652 21.3946 20.5196 21.2071 20.7071C21.0196 20.8947 20.7652 21 20.5 21H4.5C4.23478 21 3.98043 20.8947 3.79289 20.7071C3.60536 20.5196 3.5 20.2652 3.5 20V9.49003C3.49989 9.33764 3.53462 9.18724 3.60152 9.05033C3.66841 8.91341 3.76572 8.79359 3.886 8.70003L11.886 2.47803C12.0615 2.34147 12.2776 2.26733 12.5 2.26733C12.7224 2.26733 12.9385 2.34147 13.114 2.47803L21.114 8.70003C21.2343 8.79359 21.3316 8.91341 21.3985 9.05033C21.4654 9.18724 21.5001 9.33764 21.5 9.49003V20Z" fill="white"/>
</g>
</svg>
