<svg width="103" height="18" viewBox="0 0 103 18" fill="none" xmlns="http://www.w3.org/2000/svg">
<rect width="103" height="18" fill="#EAEAEA"/>
<g id="Pipelines screen" clip-path="url(#clip0_2_4417)">
<rect width="1280" height="1002" transform="translate(-865 -27)" fill="#F1F6F8"/>
<g id="Frame 217" filter="url(#filter0_d_2_4417)">
<rect width="1280" height="72" transform="translate(-865 -27)" fill="white"/>
<g id="Frame 258">
<g id="Frame 113">
<g id="Frame 52" filter="url(#filter1_i_2_4417)">
<path d="M-22 -7.5C-22 -11.9183 -18.4183 -15.5 -14 -15.5H306.5C320.031 -15.5 331 -4.53098 331 9C331 22.531 320.031 33.5 306.5 33.5H-14C-18.4183 33.5 -22 29.9183 -22 25.5V-7.5Z" fill="#F1F3F7"/>
<g id="Frame 55" filter="url(#filter2_d_2_4417)">
<rect x="-16" y="-10" width="135" height="38" rx="6" fill="white" shape-rendering="crispEdges"/>
<g id="main_logo 1">
<path id="Vector" d="M58.1613 5.89429C56.8366 5.89429 55.7848 6.38011 55.2198 7.33297L55.1025 6.17455H53.2129V15.0496H55.4533V10.0982C55.4533 8.82769 56.0576 7.83745 57.5963 7.83745C59.0383 7.83745 59.5639 8.82769 59.5639 10.0982V15.0496H61.8043V9.44425C61.8043 7.46377 60.5771 5.89429 58.1613 5.89429Z" fill="#010045"/>
<path id="Vector_2" d="M44.8361 9.72457C45.1478 8.65957 46.0439 7.83745 47.4856 7.83745C48.8883 7.83745 49.7261 8.69695 49.9209 9.72457H44.8361ZM47.4856 5.89429C44.5438 5.89429 42.5566 7.98697 42.5566 10.6028C42.5566 13.0877 44.3879 15.3299 47.5245 15.3299C49.6481 15.3299 51.2651 14.3209 51.986 12.6954L49.9404 12.0601C49.5508 12.9196 48.674 13.3867 47.544 13.3867C45.9465 13.3867 45.0308 12.4339 44.797 11.2754H52.1223C52.3951 8.09905 50.4858 5.89429 47.4856 5.89429Z" fill="#010045"/>
<path id="Vector_3" d="M40.4633 2.16711H39.3038L39.3027 15.0497H41.5431L41.5442 3.20379C41.5442 2.58177 41.0529 2.16711 40.4633 2.16711Z" fill="#010045"/>
<path id="Vector_4" d="M80.6438 6.17445H77.9359L74.2541 9.81789L74.2553 3.20727C74.2553 2.66103 73.7616 2.20581 73.2297 2.20581H72.0149L72.0137 15.0495H74.2541V12.4524L75.5394 11.1819L78.17 15.0495H80.7612L77.0594 9.68715L80.6438 6.17445Z" fill="#010045"/>
<path id="Vector_5" d="M93.2679 7.51997L93.1318 6.17471H91.2422V15.0498H93.4826V10.7524C93.4826 8.97737 94.1643 8.21129 95.7424 8.21129H96.1319V6.00647C94.7098 6.00647 93.7161 6.54839 93.2679 7.51997Z" fill="#010045"/>
<path id="Vector_6" d="M101.781 8.08027V6.17443H99.2482V3.36475H97.0078V11.4808C97.0078 13.7977 97.9236 15.0495 100.573 15.0495H101.781V13.0877H100.612C99.7551 13.0877 99.2482 12.6392 99.2482 11.7611V8.08027H101.781Z" fill="#010045"/>
<path id="Vector_7" d="M85.085 13.3867C83.4482 13.3867 82.3183 12.2657 82.3183 10.6028C82.3183 8.93983 83.4482 7.83751 85.085 7.83751C86.6238 7.83751 87.7736 8.93983 87.7736 10.6028C87.7736 12.2657 86.6238 13.3867 85.085 13.3867ZM87.871 7.38907C87.2087 6.38011 86.1368 5.89429 84.7535 5.89429C82.0069 5.89429 80.0586 7.78147 80.0586 10.6028C80.0586 13.4054 81.9869 15.3299 84.7535 15.3299C86.0008 15.3299 86.9746 14.9375 87.6369 14.1528V15.0497H89.8773V6.17461H87.9877L87.871 7.38907Z" fill="#010045"/>
<path id="Vector_8" d="M68.331 9.79933L66.5969 9.53773C65.5644 9.36961 65.1555 9.14539 65.1555 8.65963C65.1555 8.19247 65.6231 7.74403 66.6749 7.74403C68.0389 7.74403 68.7599 8.37931 69.1494 9.08929L70.7468 7.91221C70.1039 6.82855 68.9347 5.89429 66.9477 5.89429C64.5319 5.89429 63.0318 7.07149 63.0318 8.73433C63.0318 10.117 63.8889 11.0699 65.7591 11.3314L67.4546 11.5744C68.7012 11.7612 68.8766 12.1349 68.8766 12.5459C68.8766 13.0691 68.2723 13.4802 67.3179 13.4802C66.0713 13.4802 65.0188 12.957 64.3178 11.8172L62.5449 13.013C63.5387 14.6199 65.1942 15.3299 67.1618 15.3299C69.695 15.3299 71.039 13.9846 71.039 12.3217C71.039 11.0325 70.318 10.0982 68.331 9.79933Z" fill="#010045"/>
<path id="Vector_9" d="M10.7285 13.6604C13.5458 13.6042 15.7909 11.7466 15.8936 8.86169C16.1723 10.0579 16.7153 11.1133 17.3169 12.014C15.6294 13.2665 14.03 13.8293 12.3573 13.8293C11.785 13.8293 11.2568 13.773 10.7285 13.6604Z" fill="#010045"/>
<path id="Vector_10" d="M34.5581 8.62229C34.5581 8.88971 34.382 9.07265 34.1032 9.07265H33.4576L33.4869 8.67857C33.6044 7.10249 33.2521 6.03293 32.5625 5.09009L34.1325 5.52635C34.47 5.63897 34.5581 5.79371 34.5581 6.21593V8.62229Z" fill="#010045"/>
<path id="Vector_11" d="M2.17578 6.21593C2.17578 5.79371 2.2638 5.62481 2.5866 5.52635L4.23004 5.09009C3.48176 6.10337 3.11483 7.46837 3.17351 8.66453L3.20291 9.07265H2.616C2.35188 9.07265 2.17578 8.88971 2.17578 8.62229V6.21593Z" fill="#010045"/>
<path id="Vector_12" d="M7.85352 4.93527C8.70455 3.90795 9.90777 3.40137 11.4778 3.40137C14.3245 3.40137 16.5988 5.06193 17.6994 7.83423L18.2863 9.26961C19.7096 12.8581 21.5584 14.6453 23.7154 15.3067C20.3552 14.8282 17.714 12.9003 16.5988 9.73401L16.0999 8.28453C15.0287 5.31525 13.356 3.96423 10.7148 3.96423C9.64359 3.96423 8.58719 4.34421 7.85352 4.93527Z" fill="#010045"/>
<path id="Vector_13" d="M27.3984 2.40234C30.7439 2.82456 33.1357 5.27316 33.1357 8.18616C33.1357 10.7333 31.1401 12.802 28.4256 13.0131C30.2451 11.9435 30.9347 10.5081 30.9347 8.5521C30.9347 5.7516 29.5848 3.27492 27.3984 2.40234Z" fill="#010045"/>
<path id="Vector_14" d="M21.7492 2.24731C20.4432 2.75395 19.3574 3.48572 18.4036 4.49893C17.1123 3.2465 16.2759 2.76799 14.8086 2.26141L21.7492 2.24731Z" fill="#010045"/>
<path id="Vector_15" d="M18.6387 4.7947C20.4141 3.02152 22.6152 2.06458 24.5521 2.06458C26.9585 2.06458 29.3502 3.57034 30.1866 6.28636C29.0861 4.4992 27.208 3.96436 25.858 3.96436C23.1727 3.96436 20.825 6.11746 20.825 8.81944C20.2381 6.7789 19.3137 5.44204 18.6387 4.7947Z" fill="#010045"/>
<path id="Vector_16" d="M3.58398 8.66458C3.58398 4.7665 6.70944 2.06458 11.2434 2.06458C15.4107 2.06458 18.6976 4.24582 20.1062 7.94692L20.5171 9.10083C21.6909 12.1968 23.6131 13.6745 26.4451 13.6745C28.5581 13.6745 31.0085 12.9849 32.2705 11.5917C31.1993 13.9137 28.8515 15.2505 25.9902 15.2505C22.7034 15.2505 20.297 13.1678 18.8737 9.56523L18.228 7.94692C16.9367 4.73836 14.6037 2.97928 11.5663 2.97928C8.13271 2.97928 5.785 5.31531 5.785 8.60829C5.785 11.9716 8.36756 14.2373 12.2413 14.2373C13.5032 14.2373 14.6037 13.998 15.7042 13.4915C14.4716 14.6313 12.7255 15.2505 10.7886 15.2505C6.63603 15.2505 3.58398 12.4642 3.58398 8.66458Z" fill="#010045"/>
</g>
</g>
</g>
</g>
</g>
</g>
</g>
<defs>
<filter id="filter0_d_2_4417" x="-889" y="-47" width="1328" height="120" filterUnits="userSpaceOnUse" color-interpolation-filters="sRGB">
<feFlood flood-opacity="0" result="BackgroundImageFix"/>
<feColorMatrix in="SourceAlpha" type="matrix" values="0 0 0 0 0 0 0 0 0 0 0 0 0 0 0 0 0 0 127 0" result="hardAlpha"/>
<feOffset dy="4"/>
<feGaussianBlur stdDeviation="12"/>
<feComposite in2="hardAlpha" operator="out"/>
<feColorMatrix type="matrix" values="0 0 0 0 0 0 0 0 0 0 0 0 0 0 0 0 0 0 0.12 0"/>
<feBlend mode="normal" in2="BackgroundImageFix" result="effect1_dropShadow_2_4417"/>
<feBlend mode="normal" in="SourceGraphic" in2="effect1_dropShadow_2_4417" result="shape"/>
</filter>
<filter id="filter1_i_2_4417" x="-22" y="-16" width="355" height="52" filterUnits="userSpaceOnUse" color-interpolation-filters="sRGB">
<feFlood flood-opacity="0" result="BackgroundImageFix"/>
<feBlend mode="normal" in="SourceGraphic" in2="BackgroundImageFix" result="shape"/>
<feColorMatrix in="SourceAlpha" type="matrix" values="0 0 0 0 0 0 0 0 0 0 0 0 0 0 0 0 0 0 127 0" result="hardAlpha"/>
<feOffset dx="3" dy="4"/>
<feGaussianBlur stdDeviation="1"/>
<feComposite in2="hardAlpha" operator="arithmetic" k2="-1" k3="1"/>
<feColorMatrix type="matrix" values="0 0 0 0 0 0 0 0 0 0 0 0 0 0 0 0 0 0 0.04 0"/>
<feBlend mode="normal" in2="shape" result="effect1_innerShadow_2_4417"/>
</filter>
<filter id="filter2_d_2_4417" x="-18" y="-10" width="143" height="46" filterUnits="userSpaceOnUse" color-interpolation-filters="sRGB">
<feFlood flood-opacity="0" result="BackgroundImageFix"/>
<feColorMatrix in="SourceAlpha" type="matrix" values="0 0 0 0 0 0 0 0 0 0 0 0 0 0 0 0 0 0 127 0" result="hardAlpha"/>
<feOffset dx="2" dy="4"/>
<feGaussianBlur stdDeviation="2"/>
<feComposite in2="hardAlpha" operator="out"/>
<feColorMatrix type="matrix" values="0 0 0 0 0 0 0 0 0 0 0 0 0 0 0 0 0 0 0.04 0"/>
<feBlend mode="normal" in2="BackgroundImageFix" result="effect1_dropShadow_2_4417"/>
<feBlend mode="normal" in="SourceGraphic" in2="effect1_dropShadow_2_4417" result="shape"/>
</filter>
<clipPath id="clip0_2_4417">
<rect width="1280" height="1002" fill="white" transform="translate(-865 -27)"/>
</clipPath>
</defs>
</svg>
